<svg version="1.1"
	 xmlns="http://www.w3.org/2000/svg" xmlns:xlink="http://www.w3.org/1999/xlink" xmlns:a="http://ns.adobe.com/AdobeSVGViewerExtensions/3.0/"
	 x="0px" y="0px" width="100px" height="100px" viewBox="0 0 100 100" enable-background="new 0 0 100 100" xml:space="preserve">
	<path id="deer" d="M99,27.4c-1.2-2.6-3.3-4.6-5.9-5.6l-11.2-4.2l1.9-2l7.7,1.2c0.2,0,0.3,0,0.5,0c1.6,0,3-1.2,3.2-2.8
	c0.3-1.8-1-3.5-2.7-3.8l-3.3-0.5l1.7-1.8c1.2-1.3,1.2-3.4-0.1-4.7C89.4,2,87.4,2,86.2,3.4l-3.8,4.1l-4.9-4.3
	c-1.3-1.2-3.4-1.1-4.6,0.3c-1.2,1.4-1,3.5,0.3,4.7l4.7,4.2l-2.6,2.8l-6-2.3c-2-0.7-4.2,0.3-4.9,2.3L64,16.3l-12.2-6.3l1.6-5.9
	c0.5-1.8-0.5-3.6-2.2-4.1c-1.7-0.5-3.5,0.5-4,2.3l-1.3,4.7l-8.6-4.4c-1.6-0.8-3.5-0.2-4.3,1.5s-0.2,3.6,1.4,4.4l6.2,3.2l-4.8,2.4
	c-1.6,0.8-2.3,2.8-1.5,4.4c0.6,1.2,1.7,1.9,2.9,1.9c0.5,0,1-0.1,1.4-0.3l9.3-4.6l13.8,7l-6,16.2c-0.4,1.2-1.5,1.9-2.7,1.9H15.1
	c-2.8,0-5.3,1.6-6.5,3.9l-8,12.5c-1,1.5-0.6,3.6,0.9,4.6C2,62,2.6,62.2,3.2,62.2c1.1,0,2.1-0.5,2.7-1.5l1.6-2.5v38.4
	c0,1.9,1.5,3.4,3.3,3.4h8.5c1.8,0,3.3-1.5,3.3-3.4V77c0-1.9,1.5-3.4,3.3-3.4h27.9c1.8,0,3.3,1.5,3.3,3.4v19.6c0,1.9,1.5,3.4,3.3,3.4
	H69c1.8,0,3.3-1.5,3.3-3.4L76.8,44c0.1-0.9,0.6-1.8,1.4-2.3c0.8-0.5,1.7-0.6,2.6-0.3l4.6,1.7c5.4,2.1,11.5-0.8,13.5-6.3l0.5-1.3
	C100.3,32.9,100.2,30,99,27.4z"/>
	<g id="tree">
		<path d="M99.3,95.4l-21.2-23H81c1.4,0,2.6-0.6,3.3-1.5s0.5-2.1-0.3-3L66.3,48.8h0.3c1.4,0,2.6-0.6,3.3-1.5c0.7-0.9,0.5-2.1-0.3-2.9
			L53,26.4c-0.7-0.8-1.8-1.2-3-1.2s-2.3,0.4-3,1.2l-16.5,18c-0.8,0.9-0.9,2-0.3,2.9c0.7,0.9,2,1.5,3.3,1.5h0.3L16.2,67.9
			c-0.8,0.9-0.9,2-0.3,2.9s2,1.5,3.3,1.5H22L0.7,95.4c-0.8,0.9-0.9,2-0.3,3c0.7,0.9,2,1.6,3.3,1.6h92.7c1.4,0,2.6-0.6,3.3-1.6
			C100.2,97.5,100.1,96.3,99.3,95.4z"/>
		<path d="M43.7,14l-1.1,6.8c-0.1,0.3,0.1,0.7,0.4,0.9c0.3,0.2,0.7,0.2,1,0.1l6.1-3.2l6.1,3.2c0.3,0.2,0.7,0.1,1-0.1s0.4-0.6,0.4-0.9
			L56.3,14l4.9-4.8c0.3-0.2,0.3-0.6,0.2-1c-0.1-0.3-0.4-0.6-0.8-0.6l-6.8-1l-3.1-6.2C50.7,0.2,50.4,0,50,0c-0.4,0-0.7,0.2-0.8,0.5
			l-3.1,6.2l-6.8,1c-0.4,0-0.6,0.3-0.7,0.6c-0.1,0.3,0,0.7,0.2,1L43.7,14z"/>
	</g>
		<path id="flake" d="M100,47.2H89.7l8.7-8.7l-3.9-3.9L81.9,47.2h-3.5l3.2-3.2l-3.9-3.9l-7.2,7.2h-5.5c-0.4-2.2-1.3-4.2-2.5-6l3.9-3.9h10.1 v-5.5H72l2.5-2.5h17.9v-5.5H80l7.3-7.3l-3.9-3.9L76.1,20V7.6h-5.5v17.9L68.1,28v-4.6h-5.5v10.1l-3.9,3.9c-1.8-1.2-3.8-2.1-6-2.5
			v-5.5l7.2-7.2L56,18.4l-3.2,3.2v-3.5L65.4,5.5l-3.9-3.9l-8.7,8.7V0h-5.5v10.3l-8.7-8.7l-3.9,3.9l12.6,12.6v3.5L44,18.4l-3.9,3.9
			l7.2,7.2v5.5c-2.2,0.4-4.2,1.3-6,2.5l-3.9-3.9V23.4h-5.5V28l-2.5-2.5V7.6h-5.5V20l-7.3-7.3l-3.9,3.9l7.3,7.3H7.6v5.5h17.9l2.5,2.5
			h-4.6v5.5h10.1l3.9,3.9c-1.2,1.8-2.1,3.8-2.5,6h-5.5l-7.2-7.2L18.4,44l3.2,3.2h-3.5L5.5,34.6l-3.9,3.9l8.7,8.7H0v5.5h10.3
			l-8.7,8.7l3.9,3.9l12.6-12.6h3.5L18.4,56l3.9,3.9l7.2-7.2h5.5c0.4,2.2,1.3,4.2,2.5,6l-3.9,3.9H23.4v5.5H28l-2.5,2.5H7.6v5.5H20
			l-7.3,7.3l3.9,3.9l7.3-7.3v12.3h5.5V74.5l2.5-2.5v4.6h5.5V66.5l3.9-3.9c1.8,1.2,3.8,2.1,6,2.5v5.5l-7.2,7.2l3.9,3.9l3.2-3.2v3.5
			L34.6,94.5l3.9,3.9l8.7-8.7V100h5.5V89.7l8.7,8.7l3.9-3.9L52.8,81.9v-3.5l3.2,3.2l3.9-3.9l-7.2-7.2v-5.5c2.2-0.4,4.2-1.3,6-2.5
			l3.9,3.9v10.1h5.5V72l2.5,2.5v17.9h5.5V80l7.3,7.3l3.9-3.9L80,76.1h12.3v-5.5H74.5L72,68.1h4.6v-5.5H66.5l-3.9-3.9
			c1.2-1.8,2.1-3.8,2.5-6h5.5l7.2,7.2l3.9-3.9l-3.2-3.2h3.5l12.6,12.6l3.9-3.9l-8.7-8.7H100L100,47.2L100,47.2L100,47.2z"/>
</svg>
